<?xml version="1.0" encoding="utf-8"?>
<!-- Generator: Adobe Illustrator 16.0.0, SVG Export Plug-In . SVG Version: 6.00 Build 0)  -->
<!DOCTYPE svg PUBLIC "-//W3C//DTD SVG 1.1//EN" "http://www.w3.org/Graphics/SVG/1.1/DTD/svg11.dtd">
<svg version="1.1" id="Calque_1" xmlns="http://www.w3.org/2000/svg" xmlns:xlink="http://www.w3.org/1999/xlink" x="0px" y="0px"
	 width="260.385px" height="39.598px" viewBox="0 0 260.385 39.598" style="enable-background:new 0 0 260.385 39.598;"
	 xml:space="preserve">
<g>
	<g>
		<path d="M33.457,36.266c-0.006,1.193,0.334,2.632-1.199,3.194c-1.434,0.525-2.287-0.554-3.134-1.462
			c-0.562-0.606-1.1-1.214-1.662-1.819c-1.78-1.916-3.98-2.825-6.601-2.812c-4.629,0.012-9.264,0.002-13.899-0.004
			c-0.822,0-1.656,0.051-2.466-0.066c-2.843-0.402-4.425-2.076-4.45-4.993c-0.062-7.719-0.062-15.438,0-23.157
			C0.077,1.883,2,0.054,5.336,0.028c7.614-0.049,15.234-0.03,22.854,0.02c3.529,0.024,5.253,1.781,5.278,5.335
			c0.031,5.143,0.006,9.435,0.006,15.435h-0.006C33.469,25.817,33.488,31.118,33.457,36.266z"/>
		<g>
			<path style="fill-rule:evenodd;clip-rule:evenodd;fill:#FFFFFF;" d="M11.436,8.535c-0.966-0.37-1.962-0.283-2.981,0.271
				c-0.966,0.525-1.581,1.312-1.849,2.354c-0.212,1.017-0.031,1.989,0.501,2.97c0.294,0.541,0.621,1.014,1.144,1.338
				c0.438,0.166,0.82,0.359,1.25,0.51l0.098,0.052l0.75,0.102l0.718,0.043c0.488,0.002,0.97-0.135,1.453-0.397
				c1.509-0.805,2.329-1.601,2.566-2.442l0.02-0.221l-0.03-0.054c-0.004-0.264-0.097-0.562-0.171-0.956l-0.283-0.265l-0.751-1.383
				c-0.396-0.729-0.908-1.288-1.646-1.622L11.436,8.535L11.436,8.535z"/>
			<path style="fill-rule:evenodd;clip-rule:evenodd;fill:#FFFFFF;" d="M11.15,16.71l-0.826,0.015
				C9.655,16.773,8.953,16.89,8.1,17.109c-0.503,0.098-0.903,0.386-1.147,0.832c-0.273,0.393-0.345,0.9-0.224,1.507
				c0.108,1.095,0.638,2.198,1.477,3.357c0.738,1.103,1.541,1.812,2.403,2.12c0.924,0.422,1.881,0.264,2.816-0.445
				c0.529-0.435,0.937-0.964,1.226-1.582c0.154-0.357,0.188-0.678,0.149-1.005c0.042-0.946-0.363-2.076-1.159-3.412
				c-0.525-0.966-1.3-1.496-2.222-1.659L11.15,16.71L11.15,16.71z"/>
			<path style="fill-rule:evenodd;clip-rule:evenodd;fill:#FFFFFF;" d="M19.948,12.048l-2.412,1.702l-0.863,0.588l-0.054,0.029
				l-0.991,0.734c-0.594,0.441-0.941,0.826-1.31,1.299c-0.318,0.438-0.294,0.866-0.146,1.394c0.143,0.519,0.566,1.043,1.374,1.506
				c0.859,0.43,1.741,0.773,2.875,0.941c1.122,0.146,2.191,0.193,3.255,0.104l1.074-0.198c0.759-0.139,1.777-0.567,3.012-1.238
				c1.282-0.711,2.297-1.786,3.088-3.271c0.89-1.561,0.993-2.651,0.514-3.404c-0.419-0.772-1.037-1.271-1.793-1.51
				c-0.702-0.269-1.479-0.419-2.322-0.436C23.383,10.182,21.614,10.766,19.948,12.048L19.948,12.048z"/>
			<path style="fill-rule:evenodd;clip-rule:evenodd;fill:#FFFFFF;" d="M5.321,15.577c0.253-0.173,0.595-0.185,1.016-0.049
				c0.389,0.075,0.61,0.228,0.77,0.393l0.103,0.189c0.035,0.191-0.009,0.368-0.233,0.595l-0.752,0.534l-0.39,0.178
				c-0.068,0.002-0.205,0.007-0.345,0.006c-0.246-0.069-0.456-0.201-0.576-0.422c-0.129-0.237-0.133-0.501-0.069-0.766
				C4.959,15.935,5.067,15.75,5.321,15.577L5.321,15.577z"/>
			<path style="fill-rule:evenodd;clip-rule:evenodd;fill:#FFFFFF;" d="M16.91,10.679l-0.855,0.346l-0.081,0.105
				c-0.207,0.26-0.238,0.585-0.316,1.082c-0.048,0.551,0.143,0.902,0.406,1.131c0.191,0.224,0.482,0.247,0.825,0.109l0.956-0.672
				c0.221-0.233,0.39-0.562,0.296-0.862c0.069-0.386-0.078-0.655-0.335-0.873l-0.094-0.172
				C17.492,10.727,17.243,10.651,16.91,10.679L16.91,10.679z"/>
			<path style="fill-rule:evenodd;clip-rule:evenodd;fill:#FFFFFF;" d="M19.037,9.731c-0.269,0.146-0.379,0.326-0.396,0.552
				c-0.067,0.26-0.057,0.534,0.075,0.777c0.2,0.368,0.675,0.347,1.319-0.003l0.379-0.325c0.063-0.14,0.035-0.321-0.088-0.547
				c-0.132-0.243-0.304-0.43-0.612-0.486C19.57,9.562,19.305,9.586,19.037,9.731L19.037,9.731z"/>
			<path style="fill-rule:evenodd;clip-rule:evenodd;fill:#FFFFFF;" d="M20.547,7.395C20.279,7.54,20.168,7.72,20.155,7.95
				c0.008,0.143,0.081,0.278,0.16,0.423l0.139,0.255c0.188,0.218,0.414,0.377,0.62,0.502c0.365,0.032,0.576,0.036,0.845-0.109
				c0.268-0.146,0.379-0.325,0.393-0.557l-0.003-0.005c0.008-0.241-0.057-0.488-0.244-0.706c-0.239-0.185-0.464-0.342-0.621-0.502
				C21.081,7.224,20.816,7.248,20.547,7.395L20.547,7.395z"/>
			<path style="fill-rule:evenodd;clip-rule:evenodd;fill:#FFFFFF;" d="M15.28,23.032l0.889,1.893
				c0.437,0.547,0.879,0.978,1.387,1.274c0.617,0.239,1.166,0.227,1.703-0.065c0.535-0.296,0.815-0.674,0.914-1.132l0.257-1.062
				c-0.05-0.476-0.195-0.999-0.494-1.549c-0.309-0.567-0.923-1.059-1.847-1.48c-0.933-0.438-1.788-0.476-2.455-0.169
				C15.021,21.019,14.831,21.82,15.28,23.032L15.28,23.032z"/>
			<path style="fill-rule:evenodd;clip-rule:evenodd;fill:#FFFFFF;" d="M22.345,21.065c-1.101-0.107-1.824,0.098-1.961,0.485
				c-0.088,0.223-0.086,0.48,0.055,0.74l0.245,0.196c0.253,0.337,0.528,0.587,0.821,0.742c0.332,0.1,0.667,0.077,0.951-0.042
				c0.282-0.119,0.406-0.276,0.574-0.605c0.163-0.34,0.132-0.652,0.019-0.989c-0.103-0.188-0.179-0.329-0.297-0.418L22.345,21.065
				L22.345,21.065z"/>
		</g>
	</g>
	<g>
		<path d="M237.569,28.424c-1.495,0-2.583,0-3.956,0c-0.127-1.345-0.319-2.537-0.335-3.732c-0.048-3.598,0.033-7.197-0.054-10.793
			c-0.053-2.201-1.167-3.032-3.125-2.649c-1.616,0.315-1.763,1.522-1.77,2.807c-0.019,3.598,0.01,7.195-0.029,10.793
			c-0.012,1.103-0.178,2.203-0.291,3.519c-1.393,0-2.546,0-4.201,0c0-1.704,0.001-3.21,0-4.716c-0.003-2.98,0.048-5.963-0.027-8.942
			c-0.064-2.579-0.916-3.532-2.874-3.501c-1.879,0.029-2.398,0.708-2.429,3.417c-0.037,3.392,0.01,6.784-0.022,10.177
			c-0.011,1.104-0.158,2.206-0.261,3.546c-1.388,0-2.538,0-3.937,0c-0.108-1.021-0.279-1.91-0.286-2.801
			c-0.029-3.906-0.042-7.812-0.005-11.719c0.049-4.969,3.31-7.848,8.249-6.919c2.455,0.462,4.678,0.573,7.174,0.052
			c4.255-0.889,8.718,1.155,8.414,6.989c-0.192,3.69-0.023,7.399-0.044,11.1C237.755,26.056,237.65,27.061,237.569,28.424z"/>
		<path d="M259.825,28.4c-1.017,0-2.104,0-3.517,0c-0.206-1.814-0.407-3.593-0.64-5.644c-2.181,0-4.263,0-6.594,0
			c-0.196,1.829-0.389,3.615-0.603,5.609c-1.378,0-2.531,0-3.978,0c-0.084-1.602-0.211-3.006-0.223-4.411
			c-0.028-3.599-0.062-7.2,0.013-10.798c0.076-3.604,1.96-5.782,5.551-6.244c1.709-0.221,3.51-0.174,5.212,0.102
			c3.035,0.49,5.001,2.258,5.176,5.29c0.289,5.015,0.105,10.057,0.093,15.088C260.315,27.665,260.058,27.937,259.825,28.4z
			 M255.925,18.232c0-1.707,0.166-3.237-0.068-4.703c-0.122-0.767-0.795-1.75-1.481-2.068c-3.269-1.516-5.605,0.054-5.579,3.623
			c0.008,0.99,0.138,1.979,0.225,3.148C251.371,18.232,253.456,18.232,255.925,18.232z"/>
		<path d="M187.483,28.426c-1.029,0-2.118,0-3.485,0c-0.119-1.001-0.244-1.884-0.324-2.77c-0.083-0.903-0.121-1.812-0.192-2.944
			c-2.269,0-4.363,0-6.709,0c-0.201,1.869-0.394,3.653-0.608,5.652c-1.376,0-2.53,0-3.978,0c-0.084-1.601-0.211-3.007-0.223-4.413
			c-0.028-3.604-0.062-7.21,0.014-10.813c0.074-3.503,1.829-5.645,5.28-6.167c1.801-0.272,3.711-0.211,5.521,0.055
			c2.981,0.438,5.011,2.339,5.162,5.323c0.254,5.023,0.072,10.069,0.045,15.106C187.983,27.725,187.715,27.992,187.483,28.426z
			 M176.664,18.145c2.587,0,4.67,0,6.999,0c0-1.312,0.019-2.327-0.003-3.34c-0.063-2.977-0.695-3.603-3.632-3.637
			c-3.033-0.034-3.518,0.432-3.538,3.55C176.483,15.813,176.597,16.91,176.664,18.145z"/>
		<path d="M127.785,18.205c-0.167,2.04-0.112,4.128-0.546,6.109c-0.832,3.792-3.439,5.141-8.71,4.838
			c-3.958-0.227-6.285-1.94-6.552-5.532c-0.288-3.865-0.149-7.775,0.016-11.656c0.109-2.555,1.768-4.188,4.179-4.711
			c1.773-0.384,3.679-0.522,5.481-0.336c3.542,0.368,5.546,2.491,5.894,6.039c0.169,1.73,0.029,3.49,0.029,5.236
			C127.646,18.196,127.715,18.201,127.785,18.205z M123.086,18.059c0.002,0,0.005,0,0.008,0c0-1.33,0.058-2.664-0.013-3.99
			c-0.119-2.214-0.641-2.729-2.709-2.891c-2.74-0.214-4.043,0.377-4.184,2.402c-0.206,2.949-0.198,5.937,0.027,8.884
			c0.145,1.895,1.4,2.452,3.97,2.306c2.184-0.124,2.742-0.602,2.885-2.722C123.159,20.724,123.086,19.389,123.086,18.059z"/>
		<path d="M47.716,22.431c-0.213,2.228-0.375,3.922-0.568,5.942c-1.253,0.059-2.408,0.112-3.475,0.163
			c-1.053-2.79-1.071-18.25-0.038-21.097c3.06,0,6.213-0.001,9.367,0.003c0.1,0,0.202,0.037,0.3,0.064
			c3.189,0.872,4.888,4.226,4.463,8.811c-0.34,3.678-2.323,5.836-5.711,6.097C50.745,22.515,49.419,22.431,47.716,22.431z
			 M47.577,18.198c2.107,0.169,4.297,1.075,5.244-1.064c0.584-1.321,0.55-3.433-0.135-4.68c-1.061-1.935-3.175-1.152-5.109-0.812
			C47.577,13.829,47.577,15.851,47.577,18.198z"/>
		<path d="M138.373,28.395c-1.5,0-2.576,0-3.914,0c0-7.002,0-13.793,0-20.927c3.352,0,6.534-0.335,9.612,0.088
			c3.54,0.487,5.089,3.985,4.601,9.176c-0.312,3.306-2.457,5.441-5.772,5.7c-1.206,0.095-2.418,0.115-3.868,0.18
			c-0.125,1.07-0.229,1.951-0.33,2.832C138.599,26.339,138.501,27.235,138.373,28.395z M138.955,18.162
			c1.956,0.309,3.948,0.913,4.678-0.892c0.576-1.424,0.551-3.516-0.093-4.899c-0.797-1.715-2.759-1.109-4.585-0.739
			C138.955,13.783,138.955,15.848,138.955,18.162z"/>
		<path d="M193.994,24.558c1.126-0.578,2.108-1.081,2.869-1.471c1.421,0.625,2.564,1.416,3.784,1.561
			c0.789,0.094,2.151-0.581,2.404-1.239c0.23-0.598-0.481-1.92-1.152-2.426c-1.38-1.04-3.07-1.655-4.522-2.613
			c-2.544-1.677-3.555-4.298-2.828-6.893c0.771-2.753,2.729-4.301,5.865-4.639c3.049-0.329,5.341,1.014,7.031,4.354
			c-0.963,0.597-1.955,1.212-3.037,1.882c-0.773-0.547-1.386-1.076-2.082-1.45c-1.079-0.581-2.24-0.707-3.023,0.433
			c-0.891,1.298,0.042,2.141,1.045,2.745c1.49,0.898,3.141,1.548,4.57,2.527c2.709,1.854,3.651,5.006,2.537,7.848
			c-1.038,2.649-3.25,3.974-6.655,3.984C197.085,29.174,195.36,28.089,193.994,24.558z"/>
		<path d="M84.97,22.803c1.151,0.611,2.118,1.125,3.327,1.768c-0.412,0.915-0.609,1.719-1.072,2.315
			c-1.694,2.185-5.475,2.925-8.837,1.83c-2.815-0.917-4.065-2.724-4.108-6.118c-0.041-3.289-0.081-6.582,0.022-9.869
			c0.105-3.373,2.065-5.346,5.583-5.874c4.137-0.621,6.942,0.804,8.249,4.47c-0.96,0.545-1.976,1.123-3.078,1.749
			c-0.593-0.499-1.011-0.945-1.513-1.257c-2.598-1.618-4.685-0.553-4.769,2.474c-0.068,2.465-0.072,4.936,0.002,7.4
			c0.089,2.988,2.253,4.045,4.801,2.387C83.997,23.804,84.33,23.396,84.97,22.803z"/>
		<path d="M97.533,11.554c-1.753-0.191-3.249-0.354-5.018-0.547c-0.067-1.116-0.125-2.079-0.203-3.362
			c5.014-0.633,9.758-0.384,14.787-0.155c0.069,1.203,0.125,2.171,0.196,3.4c-1.608,0.239-2.99,0.445-4.881,0.727
			c-0.102,5.487-0.205,11.055-0.312,16.79c-1.535,0-2.623,0-4.025,0C97.267,22.877,98.152,17.331,97.533,11.554z"/>
		<path d="M158.979,24.401c2.835,0.173,4.941,0.302,7.325,0.448c0.063,1.204,0.114,2.161,0.188,3.563
			c-3.91,0.393-7.543,0.199-11.089,0.133c-0.917-2.341-1.139-16.839-0.329-20.977c1.061-0.062,2.214-0.13,3.904-0.229
			C158.979,13.1,158.979,18.579,158.979,24.401z"/>
		<path d="M62.936,7.684c1.023-0.187,1.515-0.342,2.01-0.351c0.599-0.01,1.2,0.103,1.726,0.155
			c1.173,2.485,1.349,17.435,0.229,20.885c-1.091,0-2.258,0-3.816,0C62.438,21.384,62.701,14.541,62.936,7.684z"/>
	</g>
</g>
</svg>
